<?xml version="1.0" encoding="utf-8"?>
<!-- Generator: Adobe Illustrator 25.2.0, SVG Export Plug-In . SVG Version: 6.00 Build 0)  -->
<svg version="1.1" id="Layer_1" xmlns="http://www.w3.org/2000/svg" xmlns:xlink="http://www.w3.org/1999/xlink" x="0px" y="0px"
	 viewBox="0 0 2000 2000" style="enable-background:new 0 0 2000 2000;" xml:space="preserve">
<style type="text/css">
	.st0{fill:#FFFF13;}
</style>
<rect class="st0" width="2000" height="2000"/>
<g>
	<g>
		<path d="M646.52,1030.16c2.73-1.97,5.03-4.42,6.88-7.32c2.71-4.25,4.09-9.36,4.09-15.15c0-9.02-3.54-16.19-10.52-21.31
			c-6.75-4.97-16.38-7.49-28.59-7.49h-48.39v107.37h51.32c13.27,0,23.58-2.56,30.63-7.61c7.29-5.21,10.98-12.74,10.98-22.37
			c0-7.14-1.89-13.16-5.61-17.89C654.51,1034.83,650.89,1032.07,646.52,1030.16z M589.01,995.12h28.04c7.08,0,12.54,1.28,16.23,3.81
			c3.48,2.4,5.18,5.84,5.18,10.53s-1.69,8.14-5.18,10.53c-3.7,2.54-9.17,3.83-16.23,3.83h-28.04V995.12z M638.41,1066.27
			c-3.87,2.51-9.82,3.78-17.68,3.78h-31.73v-30.02h31.73c23.03,0,23.03,11.35,23.03,15.09
			C643.76,1060.26,642.01,1063.91,638.41,1066.27z"/>
		<path d="M762.7,1038.52c4.16-5.93,6.27-13.18,6.27-21.55c0-11.81-4.13-21.24-12.26-28.02c-8.01-6.67-19.08-10.06-32.89-10.06
			h-42.35v107.37h19.02v-31.36h23.32c1.38,0,3.18-0.08,5.41-0.22l22.18,31.58h21.31l-25.24-35.74
			C753.91,1047.79,759.01,1043.77,762.7,1038.52z M743.36,1032.54c-4.48,3.68-11.2,5.55-19.99,5.55h-22.88v-42.1h22.88
			c8.79,0,15.51,1.85,20,5.49c4.42,3.57,6.57,8.64,6.57,15.5C749.95,1023.82,747.79,1028.91,743.36,1032.54L743.36,1032.54z"/>
		<path d="M866.21,984.81c-8.62-4.71-18.38-7.1-29.01-7.1c-10.72,0-20.53,2.39-29.16,7.1c-8.63,4.73-15.52,11.37-20.48,19.73
			c-4.94,8.36-7.44,17.79-7.44,28.04c0,10.26,2.5,19.69,7.44,28.05c4.96,8.37,11.85,14.99,20.48,19.71
			c8.62,4.72,18.43,7.12,29.16,7.12c10.64,0,20.4-2.4,29.01-7.12c8.65-4.72,15.52-11.33,20.41-19.64
			c4.88-8.31,7.37-17.76,7.37-28.12c0-10.35-2.48-19.8-7.37-28.11C881.74,996.17,874.87,989.55,866.21,984.81z M870.03,1051.76
			c-3.28,5.68-7.82,10.19-13.48,13.41h-0.01c-5.69,3.24-12.19,4.88-19.33,4.88c-7.14,0-13.69-1.64-19.49-4.88
			c-5.76-3.22-10.35-7.74-13.62-13.41c-3.28-5.67-4.94-12.12-4.94-19.18s1.66-13.51,4.94-19.17c3.26-5.67,7.84-10.18,13.62-13.41
			c5.77-3.24,12.33-4.88,19.49-4.88s13.67,1.64,19.34,4.88c5.66,3.21,10.2,7.73,13.48,13.41c3.29,5.69,4.95,12.14,4.95,19.17
			S873.32,1046.06,870.03,1051.76z"/>
		<polygon points="1014.37,1058.56 987.5,978.9 970.87,978.9 943.43,1058.14 917.11,978.9 897.41,978.9 932.81,1084.8 
			933.31,1086.27 952.15,1086.27 978.73,1008.44 1005.33,1086.27 1023.87,1086.27 1059.78,978.9 1041.25,978.9 		"/>
		<path d="M1128.26,1029.99c-4.79-1.88-11.18-3.79-19.01-5.69c-5.88-1.35-10.59-2.63-13.99-3.83c-3.16-1.12-5.86-2.7-8-4.7
			c-1.92-1.8-2.85-4.11-2.85-7.05c0-4.13,1.76-7.41,5.39-10.04c3.78-2.76,9.67-4.16,17.51-4.16c4.47,0,9.13,0.69,13.81,2.05
			c4.72,1.38,9.21,3.41,13.3,6.02l2.16,1.38l6.5-15.75l-1.41-0.99c-4.4-3.07-9.73-5.45-15.86-7.09c-6.02-1.61-12.25-2.42-18.51-2.42
			c-9.01,0-16.69,1.4-22.83,4.17c-6.24,2.8-10.98,6.63-14.1,11.39c-3.12,4.76-4.71,10.16-4.71,16.04c0,7.07,1.89,12.83,5.62,17.1
			c3.6,4.12,7.99,7.21,13.06,9.21c4.86,1.89,11.28,3.8,19.07,5.67c6.08,1.45,10.84,2.77,14.14,3.92c3.08,1.07,5.69,2.62,7.77,4.6
			c1.88,1.8,2.79,4.12,2.79,7.06c0,4.09-1.77,7.31-5.4,9.8c-3.83,2.62-9.86,3.95-17.92,3.95c-6.22,0-12.33-1.07-18.2-3.19
			c-5.83-2.09-10.67-4.84-14.38-8.18l-2.14-1.93l-7.36,15.51l1.16,1.07c4.31,4.02,10.3,7.32,17.78,9.82
			c7.43,2.47,15.21,3.72,23.14,3.72c8.99,0,16.71-1.38,22.94-4.09c6.35-2.76,11.18-6.6,14.35-11.39c3.16-4.8,4.77-10.17,4.77-15.97
			c0-6.99-1.89-12.67-5.61-16.9C1137.62,1035.05,1133.27,1031.98,1128.26,1029.99z"/>
		<polygon points="1183.07,1040.18 1234.75,1040.18 1234.75,1023.36 1183.07,1023.36 1183.07,995.99 1241.09,995.99 1241.09,978.9 
			1164.04,978.9 1164.04,1086.27 1243.16,1086.27 1243.16,1069.16 1183.07,1069.16 		"/>
		<path d="M1256.96,989.97h38v63.83c0,7.69-1.54,13.38-4.56,16.93c-2.99,3.51-7.48,5.21-13.75,5.21c-4.23,0-8.16-1.02-11.68-3.04
			c-3.57-2.01-6.71-5.03-9.37-8.96l-1.53-2.27l-7.51,8.22l0.88,1.38c3.11,4.9,7.32,8.8,12.5,11.58h0.01
			c5.18,2.76,10.8,4.16,16.7,4.16c9.8,0,17.38-2.86,22.51-8.52c5.05-5.6,7.62-13.91,7.62-24.71V978.9h-49.81V989.97z"/>
		<path d="M1411.85,985.19c-8.46-4.67-18.02-7.04-28.44-7.04c-10.45,0-20.02,2.4-28.44,7.13c-8.44,4.72-15.18,11.3-20.02,19.56
			c-4.84,8.26-7.29,17.59-7.29,27.74c0,10.16,2.45,19.49,7.29,27.75c4.83,8.24,11.57,14.82,20.02,19.56
			c8.46,4.73,18.03,7.13,28.44,7.13c10.42,0,19.99-2.38,28.44-7.06c8.44-4.66,15.18-11.23,20.03-19.49
			c4.84-8.25,7.29-17.63,7.29-27.89c0-10.26-2.45-19.64-7.29-27.9C1427.04,996.44,1420.31,989.88,1411.85,985.19z M1421.46,1054.7
			c-3.84,6.58-9.11,11.78-15.68,15.48h-0.01c-6.61,3.73-14.14,5.61-22.36,5.61c-8.23,0-15.78-1.89-22.44-5.62
			c-6.65-3.7-11.95-8.91-15.77-15.47c-3.81-6.56-5.74-14-5.74-22.12s1.93-15.55,5.74-22.11c3.81-6.55,9.12-11.76,15.77-15.48
			c6.67-3.73,14.21-5.62,22.44-5.62c8.21,0,15.74,1.89,22.37,5.62c6.59,3.71,11.86,8.91,15.68,15.48c3.81,6.55,5.75,14,5.75,22.11
			C1427.21,1040.7,1425.27,1048.15,1421.46,1054.7z"/>
		<path d="M1542.82,1038.23c-3.04-3.47-7.07-6.07-12.04-7.79c3.1-1.8,5.74-4.09,7.85-6.85c3.37-4.39,5.08-9.83,5.08-16.19
			c0-9.12-3.44-16.27-10.23-21.25c-6.57-4.81-15.79-7.25-27.41-7.25h-45.14v107.37h48.09c12.97,0,22.96-2.52,29.69-7.48
			c6.94-5.13,10.46-12.49,10.46-21.91C1549.18,1049.33,1547.04,1043.05,1542.82,1038.23L1542.82,1038.23z M1472.74,989.67h33.05
			c8.54,0,15.13,1.62,19.58,4.82c4.31,3.1,6.41,7.51,6.41,13.5c0,6.08-2.1,10.55-6.41,13.64c-4.47,3.2-11.06,4.83-19.58,4.83h-33.05
			V989.67z M1530.57,1070.65c-4.77,3.22-12.02,4.85-21.54,4.85h-36.3v-38.26h36.3c9.53,0,16.79,1.61,21.55,4.79
			c4.56,3.05,6.78,7.71,6.78,14.26C1537.37,1062.85,1535.14,1067.55,1530.57,1070.65z"/>
		<path d="M1634.85,1041.68c-3.39-3.83-7.56-6.71-12.38-8.59c-4.57-1.8-10.77-3.67-18.39-5.54c-6.64-1.64-11.96-3.2-15.81-4.65
			c-3.61-1.35-6.66-3.31-9.07-5.81c-2.27-2.34-3.37-5.46-3.37-9.54c0-5.45,2.14-9.77,6.53-13.19c4.51-3.51,11.34-5.29,20.34-5.29
			c4.57,0,9.29,0.71,14.03,2.12c4.72,1.4,9.09,3.48,13.02,6.19l2.1,1.44l4.61-9.98l-1.46-1.03c-4.18-2.96-9.19-5.34-14.9-7.07
			c-5.69-1.73-11.55-2.6-17.4-2.6c-8.41,0-15.56,1.3-21.28,3.88c-5.83,2.62-10.23,6.23-13.08,10.75c-2.86,4.51-4.31,9.52-4.31,14.92
			c0,6.7,1.79,12.15,5.31,16.21c3.42,3.94,7.63,6.89,12.48,8.75c4.64,1.81,10.67,3.63,18.47,5.55c6.6,1.56,11.86,3.07,15.64,4.5
			c3.63,1.35,6.68,3.31,9.09,5.81c2.27,2.35,3.37,5.47,3.37,9.54c0,5.33-2.17,9.53-6.65,12.86c-4.61,3.43-11.66,5.18-20.95,5.18
			c-6.47,0-12.72-1.17-18.58-3.47c-5.82-2.28-10.49-5.25-13.88-8.83l-1.94-2.05l-5.68,9.4l1.11,1.18c4.05,4.36,9.7,7.94,16.78,10.63
			c7.07,2.69,14.58,4.05,22.34,4.05c8.4,0,15.63-1.3,21.49-3.87c5.95-2.61,10.45-6.2,13.37-10.66c2.92-4.45,4.4-9.45,4.4-14.87
			C1640.18,1051.02,1638.38,1045.66,1634.85,1041.68z"/>
	</g>
	<g>
		<path d="M534.61,1017.19c-4.34-17.5-17.26-32.75-34.7-40.91l-23.33-10.91c-6.33,4.23-13.67,7.03-21.56,8.07l13.85,85.44
			l-20.65,20.37l-20.37-20.65l12.27-85.4c-7.25-1.19-13.99-3.86-19.87-7.76l-23.18,10.84c-17.51,8.19-30.45,23.52-34.76,41.1
			l70.31,69.35l15.74,15.52l6.58-6.49L534.61,1017.19z"/>
		<path d="M535.66,1022.1L535.66,1022.1l-84.29,83.13l18.81,18.56c37.32-9.43,64.69-42.63,66.72-81.15l0.09-1.52
			c0.07-1.06,0.14-2.12,0.14-3.21C537.14,1032.7,536.64,1027.4,535.66,1022.1z"/>
		<path d="M361.27,1022.3c-0.96,5.25-1.44,10.49-1.44,15.62c0,1.05,0.07,2.09,0.14,3.12l0.1,1.61c2.03,38.43,29.33,71.61,66.53,81.1
			l18.76-18.5l-34.85-34.38L361.27,1022.3z"/>
		<path d="M420.7,960.56c0.65,0.48,1.29,0.97,1.97,1.41c0.7,0.47,1.44,0.89,2.17,1.32c4.82,2.82,10.17,4.79,15.88,5.73
			c2.49,0.41,5.03,0.68,7.64,0.68c2.03,0,4.02-0.17,5.99-0.43c6.37-0.82,12.34-2.93,17.64-6.05c0.73-0.43,1.46-0.85,2.17-1.32
			c0.67-0.45,1.31-0.94,1.96-1.42c11.5-8.52,19-22.15,19-37.53c0-25.78-20.97-46.75-46.75-46.75c-25.78,0-46.75,20.97-46.75,46.75
			C401.61,938.38,409.15,952.04,420.7,960.56z"/>
	</g>
</g>
</svg>
