<?xml version="1.0" encoding="utf-8"?>
<!-- Generator: Adobe Illustrator 25.2.0, SVG Export Plug-In . SVG Version: 6.00 Build 0)  -->
<svg version="1.1" id="Layer_1" xmlns="http://www.w3.org/2000/svg" xmlns:xlink="http://www.w3.org/1999/xlink" x="0px" y="0px"
	 viewBox="0 0 2000 2000" style="enable-background:new 0 0 2000 2000;" xml:space="preserve">
<style type="text/css">
	.st0{fill:#FFFF13;}
</style>
<rect class="st0" width="2000" height="2000"/>
<g>
	<g>
		<path d="M562.49,1226.77c2.6-1.88,4.8-4.22,6.56-6.98c2.59-4.06,3.9-8.93,3.9-14.46c0-8.61-3.38-15.45-10.04-20.33
			c-6.44-4.74-15.63-7.14-27.27-7.14h-46.17v102.44h48.97c12.66,0,22.5-2.44,29.23-7.26c6.96-4.97,10.48-12.15,10.48-21.34
			c0-6.81-1.8-12.55-5.36-17.07C570.12,1231.22,566.66,1228.59,562.49,1226.77z M507.62,1193.33h26.75c6.76,0,11.97,1.22,15.49,3.63
			c3.32,2.29,4.94,5.57,4.94,10.05c0,4.48-1.62,7.76-4.94,10.05c-3.53,2.43-8.75,3.65-15.49,3.65h-26.75V1193.33z M554.75,1261.22
			c-3.69,2.39-9.37,3.61-16.87,3.61h-30.27v-28.64h30.27c21.97,0,21.97,10.83,21.97,14.39
			C559.86,1255.48,558.19,1258.97,554.75,1261.22z"/>
		<path d="M673.33,1234.74c3.97-5.66,5.98-12.58,5.98-20.56c0-11.26-3.94-20.26-11.7-26.73c-7.65-6.36-18.2-9.6-31.38-9.6h-40.4
			v102.44h18.15v-29.92h22.25c1.31,0,3.03-0.07,5.16-0.21l21.17,30.13h20.33l-24.08-34.1
			C664.95,1243.59,669.82,1239.75,673.33,1234.74z M654.88,1229.04c-4.28,3.51-10.69,5.3-19.07,5.3h-21.83v-40.17h21.83
			c8.38,0,14.8,1.76,19.08,5.24c4.22,3.41,6.27,8.25,6.27,14.79C661.17,1220.72,659.11,1225.58,654.88,1229.04L654.88,1229.04z"/>
		<path d="M772.1,1183.5c-8.22-4.49-17.53-6.77-27.67-6.77c-10.23,0-19.59,2.28-27.82,6.77c-8.24,4.52-14.81,10.85-19.54,18.82
			c-4.72,7.97-7.1,16.97-7.1,26.75c0,9.79,2.38,18.79,7.1,26.76c4.73,7.98,11.3,14.3,19.54,18.8c8.22,4.51,17.58,6.79,27.82,6.79
			c10.15,0,19.46-2.29,27.67-6.79c8.25-4.51,14.81-10.81,19.48-18.74c4.66-7.92,7.03-16.95,7.03-26.83c0-9.87-2.37-18.89-7.03-26.82
			C786.91,1194.33,780.36,1188.02,772.1,1183.5z M775.74,1247.38c-3.13,5.42-7.46,9.73-12.86,12.79h-0.01
			c-5.43,3.09-11.63,4.66-18.44,4.66s-13.07-1.57-18.6-4.66c-5.5-3.07-9.87-7.38-12.99-12.79c-3.13-5.41-4.72-11.57-4.72-18.3
			c0-6.73,1.58-12.89,4.72-18.29c3.11-5.41,7.48-9.71,12.99-12.79c5.51-3.09,11.76-4.66,18.6-4.66s13.04,1.57,18.45,4.66
			c5.4,3.07,9.73,7.37,12.86,12.79c3.14,5.43,4.72,11.58,4.72,18.29C780.46,1235.78,778.88,1241.94,775.74,1247.38z"/>
		<polygon points="913.45,1253.86 887.82,1177.86 871.95,1177.86 845.77,1253.46 820.65,1177.86 801.86,1177.86 835.64,1278.9 
			836.11,1280.3 854.08,1280.3 879.45,1206.04 904.83,1280.3 922.51,1280.3 956.78,1177.86 939.1,1177.86 		"/>
		<path d="M1022.11,1226.6c-4.57-1.79-10.66-3.62-18.14-5.43c-5.61-1.29-10.1-2.51-13.35-3.65c-3.02-1.06-5.59-2.58-7.64-4.48
			c-1.83-1.72-2.72-3.92-2.72-6.72c0-3.94,1.68-7.07,5.14-9.58c3.6-2.63,9.23-3.97,16.71-3.97c4.27,0,8.71,0.66,13.18,1.95
			c4.51,1.31,8.78,3.25,12.69,5.75l2.07,1.31l6.2-15.03l-1.34-0.94c-4.2-2.93-9.29-5.2-15.13-6.76c-5.75-1.54-11.69-2.31-17.66-2.31
			c-8.6,0-15.92,1.34-21.78,3.98c-5.95,2.67-10.48,6.32-13.45,10.86c-2.98,4.54-4.49,9.69-4.49,15.31c0,6.75,1.8,12.24,5.36,16.32
			c3.43,3.93,7.62,6.88,12.46,8.79c4.64,1.8,10.76,3.63,18.2,5.41c5.8,1.38,10.34,2.64,13.49,3.74c2.94,1.02,5.43,2.5,7.41,4.39
			c1.79,1.72,2.67,3.93,2.67,6.74c0,3.91-1.69,6.97-5.16,9.35c-3.65,2.5-9.41,3.77-17.1,3.77c-5.93,0-11.77-1.02-17.36-3.04
			c-5.56-1.99-10.18-4.62-13.72-7.81l-2.04-1.84l-7.02,14.8l1.1,1.02c4.11,3.83,9.82,6.99,16.96,9.37
			c7.08,2.35,14.51,3.55,22.08,3.55c8.58,0,15.95-1.31,21.89-3.9c6.06-2.63,10.67-6.29,13.69-10.87c3.02-4.58,4.55-9.7,4.55-15.23
			c0-6.67-1.8-12.09-5.36-16.12C1031.05,1231.43,1026.89,1228.5,1022.11,1226.6z"/>
		<polygon points="1074.4,1236.33 1123.72,1236.33 1123.72,1220.28 1074.4,1220.28 1074.4,1194.17 1129.76,1194.17 1129.76,1177.86 
			1056.26,1177.86 1056.26,1280.3 1131.74,1280.3 1131.74,1263.98 1074.4,1263.98 		"/>
		<path d="M1144.91,1188.42h36.26v60.9c0,7.33-1.47,12.77-4.36,16.16c-2.85,3.35-7.14,4.97-13.12,4.97c-4.03,0-7.78-0.98-11.14-2.9
			c-3.4-1.92-6.4-4.8-8.94-8.55l-1.46-2.16l-7.16,7.84l0.84,1.32c2.97,4.68,6.99,8.4,11.93,11.05h0.01
			c4.94,2.63,10.3,3.97,15.93,3.97c9.35,0,16.58-2.73,21.48-8.13c4.82-5.34,7.27-13.27,7.27-23.58v-71.45h-47.53V1188.42z"/>
		<path d="M1292.68,1183.86c-8.07-4.46-17.2-6.72-27.13-6.72c-9.97,0-19.1,2.29-27.14,6.8c-8.05,4.5-14.48,10.78-19.1,18.66
			c-4.62,7.88-6.96,16.78-6.96,26.47c0,9.69,2.34,18.6,6.96,26.47c4.61,7.86,11.04,14.14,19.1,18.66c8.07,4.51,17.2,6.8,27.14,6.8
			c9.94,0,19.08-2.27,27.13-6.73c8.05-4.45,14.48-10.71,19.11-18.6c4.62-7.87,6.96-16.82,6.96-26.61c0-9.79-2.34-18.74-6.96-26.62
			C1307.18,1194.6,1300.75,1188.34,1292.68,1183.86z M1301.86,1250.18c-3.66,6.28-8.69,11.24-14.96,14.77h-0.01
			c-6.31,3.56-13.49,5.36-21.33,5.36c-7.85,0-15.06-1.8-21.41-5.36c-6.34-3.53-11.4-8.5-15.05-14.76
			c-3.63-6.26-5.47-13.36-5.47-21.1c0-7.74,1.84-14.83,5.47-21.09c3.63-6.25,8.7-11.22,15.05-14.77c6.36-3.56,13.56-5.36,21.41-5.36
			c7.84,0,15.02,1.8,21.34,5.36c6.28,3.54,11.32,8.5,14.96,14.77c3.63,6.25,5.48,13.35,5.48,21.09
			C1307.34,1236.82,1305.49,1243.93,1301.86,1250.18z"/>
		<path d="M1417.64,1234.46c-2.9-3.31-6.75-5.8-11.49-7.44c2.96-1.71,5.48-3.9,7.49-6.53c3.22-4.19,4.85-9.38,4.85-15.44
			c0-8.7-3.28-15.52-9.76-20.28c-6.27-4.59-15.07-6.92-26.15-6.92h-43.07v102.44h45.89c12.38,0,21.91-2.4,28.33-7.14
			c6.62-4.89,9.98-11.92,9.98-20.9C1423.71,1245.05,1421.67,1239.07,1417.64,1234.46L1417.64,1234.46z M1350.78,1188.14h31.53
			c8.15,0,14.43,1.54,18.68,4.6c4.11,2.95,6.12,7.16,6.12,12.88c0,5.8-2,10.06-6.12,13.02c-4.27,3.06-10.55,4.61-18.68,4.61h-31.53
			V1188.14z M1405.96,1265.4c-4.55,3.07-11.46,4.63-20.55,4.63h-34.63v-36.5h34.63c9.09,0,16.02,1.54,20.57,4.57
			c4.36,2.91,6.47,7.36,6.47,13.61C1412.44,1257.96,1410.32,1262.44,1405.96,1265.4z"/>
		<path d="M1505.45,1237.76c-3.23-3.65-7.21-6.4-11.81-8.2c-4.36-1.72-10.27-3.5-17.55-5.28c-6.34-1.56-11.42-3.05-15.08-4.43
			c-3.44-1.29-6.36-3.15-8.65-5.55c-2.17-2.23-3.22-5.21-3.22-9.1c0-5.2,2.04-9.32,6.23-12.58c4.3-3.35,10.82-5.04,19.4-5.04
			c4.36,0,8.86,0.68,13.38,2.02c4.5,1.34,8.68,3.32,12.42,5.91l2,1.38l4.4-9.52l-1.39-0.99c-3.99-2.83-8.77-5.09-14.22-6.75
			c-5.43-1.65-11.02-2.48-16.6-2.48c-8.02,0-14.85,1.24-20.3,3.7c-5.56,2.5-9.76,5.95-12.48,10.25c-2.73,4.3-4.11,9.09-4.11,14.23
			c0,6.39,1.7,11.59,5.07,15.47c3.27,3.76,7.28,6.57,11.9,8.35c4.43,1.73,10.18,3.46,17.62,5.29c6.3,1.49,11.32,2.93,14.92,4.29
			c3.46,1.29,6.37,3.15,8.67,5.55c2.16,2.24,3.22,5.22,3.22,9.1c0,5.08-2.07,9.09-6.35,12.27c-4.39,3.27-11.13,4.94-19.99,4.94
			c-6.17,0-12.14-1.11-17.73-3.31c-5.56-2.18-10.01-5.01-13.24-8.42l-1.85-1.95l-5.42,8.97l1.06,1.13
			c3.87,4.16,9.25,7.57,16.01,10.14c6.75,2.57,13.91,3.87,21.31,3.87c8.01,0,14.91-1.24,20.5-3.69c5.68-2.49,9.97-5.92,12.76-10.17
			c2.79-4.24,4.2-9.01,4.2-14.19C1510.53,1246.67,1508.82,1241.56,1505.45,1237.76z"/>
	</g>
	<g>
		<path d="M1141.23,949.75c-7.12-28.69-28.3-53.69-56.9-67.08l-38.26-17.9c-10.38,6.93-22.41,11.54-35.35,13.24l22.71,140.1
			l-33.87,33.4l-33.4-33.87l20.12-140.04c-11.88-1.94-22.94-6.33-32.59-12.73l-38.01,17.78c-28.7,13.42-49.93,38.56-57,67.4
			l115.29,113.72l25.81,25.46l10.79-10.65L1141.23,949.75z"/>
		<path d="M1142.95,957.79L1142.95,957.79l-138.22,136.32l30.84,30.43c61.19-15.46,106.07-69.9,109.41-133.07l0.16-2.49
			c0.11-1.74,0.24-3.48,0.24-5.26C1145.37,975.18,1144.56,966.48,1142.95,957.79z"/>
		<path d="M857,958.12c-1.57,8.61-2.37,17.2-2.37,25.61c0,1.73,0.12,3.42,0.23,5.11l0.16,2.64
			c3.34,63.01,48.09,117.42,109.09,132.98l30.75-30.34l-57.15-56.37L857,958.12z"/>
		<path d="M954.45,856.89c1.07,0.79,2.12,1.58,3.22,2.31c1.16,0.76,2.36,1.46,3.56,2.16c7.9,4.62,16.68,7.85,26.04,9.4
			c4.09,0.68,8.25,1.12,12.52,1.12c3.33,0,6.59-0.29,9.82-0.7c10.45-1.35,20.23-4.8,28.93-9.93c1.2-0.7,2.4-1.39,3.55-2.16
			c1.1-0.73,2.15-1.54,3.21-2.33c18.85-13.98,31.15-36.32,31.15-61.54c0-42.27-34.39-76.66-76.66-76.66
			c-42.27,0-76.66,34.39-76.66,76.66C923.14,820.52,935.51,842.92,954.45,856.89z"/>
	</g>
</g>
</svg>
